<svg width="1020" height="1006" viewBox="0 0 1020 1006" fill="none" xmlns="http://www.w3.org/2000/svg">
<path fill-rule="evenodd" clip-rule="evenodd" d="M482.611 815L2.61126 505C-16.6989 351 69.8011 156 305.111 280V94L180.611 16L211.611 0L407.611 128V321L462.611 358V281L564.611 346V754.5L462.111 685V402L406.611 365V729.5L499.111 788.5L500.111 806C498.278 808.667 492.211 814.2 482.611 815ZM107.801 528L155.801 563C156.968 503.833 188.501 384.4 305.301 380V327C216.301 325 111.801 334 107.801 528Z" fill="#CB4245aa"/>
<path fill-rule="evenodd" clip-rule="evenodd" d="M547.301 218L1019.8 524V602C1012.13 694.833 941.701 853.8 721.301 747V914L831.801 987L805.301 1006L618.301 879.5V300L527.801 242V225C530.134 221.167 537.301 214.4 547.301 218ZM719.801 697.5V644C764.635 645.667 857.001 612.6 867.801 467L914.801 500C914.801 612.5 874.301 709.5 719.801 697.5Z" fill="#CB4245aa"/>
</svg>
