<svg width="1728" height="387" viewBox="0 0 1728 387" fill="none" xmlns="http://www.w3.org/2000/svg">
<path opacity="0.5" d="M-146 243.329C-110.801 260.629 -72.2514 280.496 -32.5395 285.205C48.9475 294.867 130.962 262.209 196.971 217.45C257.86 176.162 315.69 135.645 382.227 103.349C464.414 63.4575 553.71 44.1515 644.928 42.1819C687.409 41.2646 732.33 43.3614 772.277 59.1206C807.617 73.0626 820.48 108.352 814.648 144.755C805.487 201.927 762.408 254.943 716.723 287.793C686.3 309.669 652.548 327.498 616.445 337.903C608.922 340.071 572.191 353.601 572.191 336.374C572.191 287.533 573.255 234.471 596.083 190.042C624.319 135.089 694.566 112.296 750.973 103.232C791.144 96.7766 831.448 95.06 872.084 95.5857C920.293 96.2094 969.19 98.0209 1016.15 109.937C1083.78 127.099 1141.2 160.857 1198.11 199.806C1251.03 236.028 1302.81 267.923 1366.06 282.734C1438.43 299.681 1511.85 300.355 1583.33 279.676C1664.9 256.077 1746.54 219.13 1811.08 162.988C1814.37 160.119 1864.51 116.29 1856.04 112.054" stroke="#BD3E41" stroke-width="84" stroke-linecap="round"/>
</svg>
